<mxfile host="app.diagrams.net" modified="2021-02-09T14:56:17.181Z" agent="5.0 (Windows NT 6.2; Win64; x64) AppleWebKit/537.36 (KHTML, like Gecko) Chrome/88.0.4324.146 Safari/537.36" etag="5gwkbUXsbZiJK-uGBThb" version="14.3.0" type="github">
  <diagram id="E8cymYkSCOVQZaFmDynL" name="Page-1">
    <mxGraphModel dx="1102" dy="582" grid="1" gridSize="10" guides="1" tooltips="1" connect="1" arrows="1" fold="1" page="1" pageScale="1" pageWidth="827" pageHeight="1169" math="0" shadow="0">
      <root>
        <mxCell id="0" />
        <mxCell id="1" parent="0" />
        <mxCell id="vko4F_rAwtcysbSp9PWE-1" value="The Antikhrist Commenth!" style="rounded=1;whiteSpace=wrap;html=1;" vertex="1" parent="1">
          <mxGeometry x="310" y="800" width="120" height="60" as="geometry" />
        </mxCell>
        <mxCell id="vko4F_rAwtcysbSp9PWE-2" value="" style="endArrow=none;html=1;entryX=0.5;entryY=1;entryDx=0;entryDy=0;" edge="1" parent="1" target="vko4F_rAwtcysbSp9PWE-1">
          <mxGeometry width="50" height="50" relative="1" as="geometry">
            <mxPoint x="380" y="970" as="sourcePoint" />
            <mxPoint x="440" y="1020" as="targetPoint" />
            <Array as="points">
              <mxPoint x="370" y="960" />
            </Array>
          </mxGeometry>
        </mxCell>
        <mxCell id="vko4F_rAwtcysbSp9PWE-18" style="edgeStyle=orthogonalEdgeStyle;rounded=0;orthogonalLoop=1;jettySize=auto;html=1;" edge="1" parent="1" source="vko4F_rAwtcysbSp9PWE-3" target="vko4F_rAwtcysbSp9PWE-19">
          <mxGeometry relative="1" as="geometry">
            <mxPoint x="370" y="1080" as="targetPoint" />
          </mxGeometry>
        </mxCell>
        <mxCell id="vko4F_rAwtcysbSp9PWE-3" value="The Dark Legions" style="rounded=1;whiteSpace=wrap;html=1;" vertex="1" parent="1">
          <mxGeometry x="310" y="960" width="120" height="60" as="geometry" />
        </mxCell>
        <mxCell id="vko4F_rAwtcysbSp9PWE-5" value="" style="endArrow=none;html=1;" edge="1" parent="1">
          <mxGeometry width="50" height="50" relative="1" as="geometry">
            <mxPoint x="490" y="910" as="sourcePoint" />
            <mxPoint x="270" y="910" as="targetPoint" />
          </mxGeometry>
        </mxCell>
        <mxCell id="vko4F_rAwtcysbSp9PWE-8" value="" style="endArrow=none;html=1;" edge="1" parent="1">
          <mxGeometry width="50" height="50" relative="1" as="geometry">
            <mxPoint x="540" y="910" as="sourcePoint" />
            <mxPoint x="210" y="910" as="targetPoint" />
          </mxGeometry>
        </mxCell>
        <mxCell id="vko4F_rAwtcysbSp9PWE-9" value="" style="endArrow=none;html=1;" edge="1" parent="1">
          <mxGeometry width="50" height="50" relative="1" as="geometry">
            <mxPoint x="540" y="970" as="sourcePoint" />
            <mxPoint x="540" y="910" as="targetPoint" />
          </mxGeometry>
        </mxCell>
        <mxCell id="vko4F_rAwtcysbSp9PWE-10" value="" style="endArrow=none;html=1;" edge="1" parent="1">
          <mxGeometry width="50" height="50" relative="1" as="geometry">
            <mxPoint x="210" y="960" as="sourcePoint" />
            <mxPoint x="210" y="910" as="targetPoint" />
          </mxGeometry>
        </mxCell>
        <mxCell id="vko4F_rAwtcysbSp9PWE-13" style="edgeStyle=orthogonalEdgeStyle;rounded=0;orthogonalLoop=1;jettySize=auto;html=1;" edge="1" parent="1" source="vko4F_rAwtcysbSp9PWE-11" target="vko4F_rAwtcysbSp9PWE-14">
          <mxGeometry relative="1" as="geometry">
            <mxPoint x="210" y="1100" as="targetPoint" />
          </mxGeometry>
        </mxCell>
        <mxCell id="vko4F_rAwtcysbSp9PWE-11" value="The Mark" style="rounded=1;whiteSpace=wrap;html=1;" vertex="1" parent="1">
          <mxGeometry x="150" y="960" width="120" height="60" as="geometry" />
        </mxCell>
        <mxCell id="vko4F_rAwtcysbSp9PWE-46" style="edgeStyle=orthogonalEdgeStyle;rounded=0;orthogonalLoop=1;jettySize=auto;html=1;" edge="1" parent="1" source="vko4F_rAwtcysbSp9PWE-12" target="vko4F_rAwtcysbSp9PWE-47">
          <mxGeometry relative="1" as="geometry">
            <mxPoint x="540" y="1080" as="targetPoint" />
          </mxGeometry>
        </mxCell>
        <mxCell id="vko4F_rAwtcysbSp9PWE-12" value="The Enemies" style="rounded=1;whiteSpace=wrap;html=1;" vertex="1" parent="1">
          <mxGeometry x="480" y="960" width="120" height="60" as="geometry" />
        </mxCell>
        <mxCell id="vko4F_rAwtcysbSp9PWE-15" style="edgeStyle=orthogonalEdgeStyle;rounded=0;orthogonalLoop=1;jettySize=auto;html=1;" edge="1" parent="1" source="vko4F_rAwtcysbSp9PWE-14" target="vko4F_rAwtcysbSp9PWE-16">
          <mxGeometry relative="1" as="geometry">
            <mxPoint x="210" y="1210" as="targetPoint" />
          </mxGeometry>
        </mxCell>
        <mxCell id="vko4F_rAwtcysbSp9PWE-14" value="Debauchery and Decay" style="rounded=1;whiteSpace=wrap;html=1;" vertex="1" parent="1">
          <mxGeometry x="150" y="1070" width="120" height="60" as="geometry" />
        </mxCell>
        <mxCell id="vko4F_rAwtcysbSp9PWE-129" style="edgeStyle=orthogonalEdgeStyle;rounded=0;orthogonalLoop=1;jettySize=auto;html=1;exitX=1;exitY=1;exitDx=0;exitDy=0;" edge="1" parent="1" source="vko4F_rAwtcysbSp9PWE-16">
          <mxGeometry relative="1" as="geometry">
            <mxPoint x="370" y="1330" as="targetPoint" />
          </mxGeometry>
        </mxCell>
        <mxCell id="vko4F_rAwtcysbSp9PWE-16" value="The Great Persecutions" style="rounded=1;whiteSpace=wrap;html=1;" vertex="1" parent="1">
          <mxGeometry x="150" y="1180" width="120" height="60" as="geometry" />
        </mxCell>
        <mxCell id="vko4F_rAwtcysbSp9PWE-20" style="edgeStyle=orthogonalEdgeStyle;rounded=0;orthogonalLoop=1;jettySize=auto;html=1;" edge="1" parent="1" source="vko4F_rAwtcysbSp9PWE-19" target="vko4F_rAwtcysbSp9PWE-21">
          <mxGeometry relative="1" as="geometry">
            <mxPoint x="370" y="1190" as="targetPoint" />
          </mxGeometry>
        </mxCell>
        <mxCell id="vko4F_rAwtcysbSp9PWE-19" value="Horsemen of the Apocalypse" style="rounded=1;whiteSpace=wrap;html=1;" vertex="1" parent="1">
          <mxGeometry x="310" y="1070" width="120" height="60" as="geometry" />
        </mxCell>
        <mxCell id="vko4F_rAwtcysbSp9PWE-127" style="edgeStyle=orthogonalEdgeStyle;rounded=0;orthogonalLoop=1;jettySize=auto;html=1;" edge="1" parent="1" source="vko4F_rAwtcysbSp9PWE-21">
          <mxGeometry relative="1" as="geometry">
            <mxPoint x="370" y="1330" as="targetPoint" />
          </mxGeometry>
        </mxCell>
        <mxCell id="vko4F_rAwtcysbSp9PWE-21" value="The Unholy Levys" style="rounded=1;whiteSpace=wrap;html=1;" vertex="1" parent="1">
          <mxGeometry x="310" y="1180" width="120" height="60" as="geometry" />
        </mxCell>
        <mxCell id="vko4F_rAwtcysbSp9PWE-48" style="edgeStyle=orthogonalEdgeStyle;rounded=0;orthogonalLoop=1;jettySize=auto;html=1;" edge="1" parent="1" source="vko4F_rAwtcysbSp9PWE-47" target="vko4F_rAwtcysbSp9PWE-49">
          <mxGeometry relative="1" as="geometry">
            <mxPoint x="540" y="1180" as="targetPoint" />
          </mxGeometry>
        </mxCell>
        <mxCell id="vko4F_rAwtcysbSp9PWE-47" value="Enact the War Plans" style="rounded=1;whiteSpace=wrap;html=1;" vertex="1" parent="1">
          <mxGeometry x="480" y="1070" width="120" height="60" as="geometry" />
        </mxCell>
        <mxCell id="vko4F_rAwtcysbSp9PWE-131" style="edgeStyle=orthogonalEdgeStyle;rounded=0;orthogonalLoop=1;jettySize=auto;html=1;exitX=0;exitY=1;exitDx=0;exitDy=0;" edge="1" parent="1" source="vko4F_rAwtcysbSp9PWE-49" target="vko4F_rAwtcysbSp9PWE-132">
          <mxGeometry relative="1" as="geometry">
            <mxPoint x="370" y="1330" as="targetPoint" />
          </mxGeometry>
        </mxCell>
        <mxCell id="vko4F_rAwtcysbSp9PWE-49" value="The Conquests of Antikhrist" style="rounded=1;whiteSpace=wrap;html=1;" vertex="1" parent="1">
          <mxGeometry x="480" y="1180" width="120" height="60" as="geometry" />
        </mxCell>
        <mxCell id="vko4F_rAwtcysbSp9PWE-82" style="edgeStyle=orthogonalEdgeStyle;rounded=0;orthogonalLoop=1;jettySize=auto;html=1;" edge="1" parent="1" source="vko4F_rAwtcysbSp9PWE-81">
          <mxGeometry relative="1" as="geometry">
            <mxPoint x="1030" y="940" as="targetPoint" />
          </mxGeometry>
        </mxCell>
        <mxCell id="vko4F_rAwtcysbSp9PWE-90" style="edgeStyle=orthogonalEdgeStyle;rounded=0;orthogonalLoop=1;jettySize=auto;html=1;" edge="1" parent="1" source="vko4F_rAwtcysbSp9PWE-81" target="vko4F_rAwtcysbSp9PWE-91">
          <mxGeometry relative="1" as="geometry">
            <mxPoint x="890" y="950" as="targetPoint" />
          </mxGeometry>
        </mxCell>
        <mxCell id="vko4F_rAwtcysbSp9PWE-94" style="edgeStyle=orthogonalEdgeStyle;rounded=0;orthogonalLoop=1;jettySize=auto;html=1;" edge="1" parent="1" source="vko4F_rAwtcysbSp9PWE-81" target="vko4F_rAwtcysbSp9PWE-95">
          <mxGeometry relative="1" as="geometry">
            <mxPoint x="1190" y="950" as="targetPoint" />
          </mxGeometry>
        </mxCell>
        <mxCell id="vko4F_rAwtcysbSp9PWE-81" value="In hoc signo vinces" style="rounded=1;whiteSpace=wrap;html=1;" vertex="1" parent="1">
          <mxGeometry x="970" y="820" width="120" height="60" as="geometry" />
        </mxCell>
        <mxCell id="vko4F_rAwtcysbSp9PWE-85" style="edgeStyle=orthogonalEdgeStyle;rounded=0;orthogonalLoop=1;jettySize=auto;html=1;" edge="1" parent="1" target="vko4F_rAwtcysbSp9PWE-86">
          <mxGeometry relative="1" as="geometry">
            <mxPoint x="1030" y="1050" as="targetPoint" />
            <mxPoint x="1030" y="1000" as="sourcePoint" />
          </mxGeometry>
        </mxCell>
        <mxCell id="vko4F_rAwtcysbSp9PWE-101" style="edgeStyle=orthogonalEdgeStyle;rounded=0;orthogonalLoop=1;jettySize=auto;html=1;" edge="1" parent="1" source="vko4F_rAwtcysbSp9PWE-86">
          <mxGeometry relative="1" as="geometry">
            <mxPoint x="1030" y="1230" as="targetPoint" />
          </mxGeometry>
        </mxCell>
        <mxCell id="vko4F_rAwtcysbSp9PWE-86" value="Sack of Moscow" style="rounded=1;whiteSpace=wrap;html=1;" vertex="1" parent="1">
          <mxGeometry x="970" y="1040" width="120" height="60" as="geometry" />
        </mxCell>
        <mxCell id="vko4F_rAwtcysbSp9PWE-92" style="edgeStyle=orthogonalEdgeStyle;rounded=0;orthogonalLoop=1;jettySize=auto;html=1;" edge="1" parent="1" source="vko4F_rAwtcysbSp9PWE-91" target="vko4F_rAwtcysbSp9PWE-93">
          <mxGeometry relative="1" as="geometry">
            <mxPoint x="887" y="1040" as="targetPoint" />
          </mxGeometry>
        </mxCell>
        <mxCell id="vko4F_rAwtcysbSp9PWE-91" value="Raze the South" style="rounded=1;whiteSpace=wrap;html=1;" vertex="1" parent="1">
          <mxGeometry x="827" y="940" width="120" height="60" as="geometry" />
        </mxCell>
        <mxCell id="vko4F_rAwtcysbSp9PWE-103" style="edgeStyle=orthogonalEdgeStyle;rounded=0;orthogonalLoop=1;jettySize=auto;html=1;exitX=1;exitY=1;exitDx=0;exitDy=0;" edge="1" parent="1" source="vko4F_rAwtcysbSp9PWE-93">
          <mxGeometry relative="1" as="geometry">
            <mxPoint x="1030" y="1140" as="targetPoint" />
          </mxGeometry>
        </mxCell>
        <mxCell id="vko4F_rAwtcysbSp9PWE-93" value="Pensa in Flames" style="rounded=1;whiteSpace=wrap;html=1;" vertex="1" parent="1">
          <mxGeometry x="827" y="1040" width="120" height="60" as="geometry" />
        </mxCell>
        <mxCell id="vko4F_rAwtcysbSp9PWE-98" style="edgeStyle=orthogonalEdgeStyle;rounded=0;orthogonalLoop=1;jettySize=auto;html=1;" edge="1" parent="1" source="vko4F_rAwtcysbSp9PWE-95" target="vko4F_rAwtcysbSp9PWE-99">
          <mxGeometry relative="1" as="geometry">
            <mxPoint x="1181" y="1050" as="targetPoint" />
          </mxGeometry>
        </mxCell>
        <mxCell id="vko4F_rAwtcysbSp9PWE-95" value="March West" style="rounded=1;whiteSpace=wrap;html=1;" vertex="1" parent="1">
          <mxGeometry x="1121" y="940" width="120" height="60" as="geometry" />
        </mxCell>
        <mxCell id="vko4F_rAwtcysbSp9PWE-96" value="The Main Target" style="rounded=1;whiteSpace=wrap;html=1;" vertex="1" parent="1">
          <mxGeometry x="970" y="930" width="120" height="70" as="geometry" />
        </mxCell>
        <mxCell id="vko4F_rAwtcysbSp9PWE-102" style="edgeStyle=orthogonalEdgeStyle;rounded=0;orthogonalLoop=1;jettySize=auto;html=1;exitX=0;exitY=1;exitDx=0;exitDy=0;" edge="1" parent="1" source="vko4F_rAwtcysbSp9PWE-99">
          <mxGeometry relative="1" as="geometry">
            <mxPoint x="1030" y="1150" as="targetPoint" />
          </mxGeometry>
        </mxCell>
        <mxCell id="vko4F_rAwtcysbSp9PWE-99" value="The Golgotha" style="rounded=1;whiteSpace=wrap;html=1;" vertex="1" parent="1">
          <mxGeometry x="1121" y="1040" width="120" height="60" as="geometry" />
        </mxCell>
        <mxCell id="vko4F_rAwtcysbSp9PWE-105" style="edgeStyle=orthogonalEdgeStyle;rounded=0;orthogonalLoop=1;jettySize=auto;html=1;" edge="1" parent="1" source="vko4F_rAwtcysbSp9PWE-104" target="vko4F_rAwtcysbSp9PWE-106">
          <mxGeometry relative="1" as="geometry">
            <mxPoint x="1030" y="1360" as="targetPoint" />
          </mxGeometry>
        </mxCell>
        <mxCell id="vko4F_rAwtcysbSp9PWE-104" value="Crush Smolensk" style="rounded=1;whiteSpace=wrap;html=1;" vertex="1" parent="1">
          <mxGeometry x="970" y="1230" width="120" height="60" as="geometry" />
        </mxCell>
        <mxCell id="vko4F_rAwtcysbSp9PWE-107" style="edgeStyle=orthogonalEdgeStyle;rounded=0;orthogonalLoop=1;jettySize=auto;html=1;" edge="1" parent="1" source="vko4F_rAwtcysbSp9PWE-106" target="vko4F_rAwtcysbSp9PWE-108">
          <mxGeometry relative="1" as="geometry">
            <mxPoint x="1030" y="1450" as="targetPoint" />
          </mxGeometry>
        </mxCell>
        <mxCell id="vko4F_rAwtcysbSp9PWE-111" style="edgeStyle=orthogonalEdgeStyle;rounded=0;orthogonalLoop=1;jettySize=auto;html=1;exitX=0;exitY=0.5;exitDx=0;exitDy=0;" edge="1" parent="1" source="vko4F_rAwtcysbSp9PWE-106" target="vko4F_rAwtcysbSp9PWE-112">
          <mxGeometry relative="1" as="geometry">
            <mxPoint x="870" y="1460" as="targetPoint" />
          </mxGeometry>
        </mxCell>
        <mxCell id="vko4F_rAwtcysbSp9PWE-115" style="edgeStyle=orthogonalEdgeStyle;rounded=0;orthogonalLoop=1;jettySize=auto;html=1;exitX=1;exitY=0.5;exitDx=0;exitDy=0;" edge="1" parent="1" source="vko4F_rAwtcysbSp9PWE-106" target="vko4F_rAwtcysbSp9PWE-116">
          <mxGeometry relative="1" as="geometry">
            <mxPoint x="1200" y="1460" as="targetPoint" />
          </mxGeometry>
        </mxCell>
        <mxCell id="vko4F_rAwtcysbSp9PWE-106" value="Cleanse the City&amp;nbsp;" style="rounded=1;whiteSpace=wrap;html=1;" vertex="1" parent="1">
          <mxGeometry x="970" y="1340" width="120" height="60" as="geometry" />
        </mxCell>
        <mxCell id="vko4F_rAwtcysbSp9PWE-109" style="edgeStyle=orthogonalEdgeStyle;rounded=0;orthogonalLoop=1;jettySize=auto;html=1;" edge="1" parent="1" source="vko4F_rAwtcysbSp9PWE-108" target="vko4F_rAwtcysbSp9PWE-110">
          <mxGeometry relative="1" as="geometry">
            <mxPoint x="1030" y="1570" as="targetPoint" />
          </mxGeometry>
        </mxCell>
        <mxCell id="vko4F_rAwtcysbSp9PWE-108" value="Capture Woronesch" style="rounded=1;whiteSpace=wrap;html=1;" vertex="1" parent="1">
          <mxGeometry x="970" y="1450" width="120" height="60" as="geometry" />
        </mxCell>
        <mxCell id="vko4F_rAwtcysbSp9PWE-120" style="edgeStyle=orthogonalEdgeStyle;rounded=0;orthogonalLoop=1;jettySize=auto;html=1;exitX=0.5;exitY=1;exitDx=0;exitDy=0;" edge="1" parent="1" source="vko4F_rAwtcysbSp9PWE-110">
          <mxGeometry relative="1" as="geometry">
            <mxPoint x="1030" y="1720" as="targetPoint" />
          </mxGeometry>
        </mxCell>
        <mxCell id="vko4F_rAwtcysbSp9PWE-110" value="Long Way to Wolgstaat" style="rounded=1;whiteSpace=wrap;html=1;" vertex="1" parent="1">
          <mxGeometry x="970" y="1550" width="120" height="60" as="geometry" />
        </mxCell>
        <mxCell id="vko4F_rAwtcysbSp9PWE-113" style="edgeStyle=orthogonalEdgeStyle;rounded=0;orthogonalLoop=1;jettySize=auto;html=1;" edge="1" parent="1" source="vko4F_rAwtcysbSp9PWE-112" target="vko4F_rAwtcysbSp9PWE-114">
          <mxGeometry relative="1" as="geometry">
            <mxPoint x="870" y="1560" as="targetPoint" />
          </mxGeometry>
        </mxCell>
        <mxCell id="vko4F_rAwtcysbSp9PWE-112" value="Conquer the SS" style="rounded=1;whiteSpace=wrap;html=1;" vertex="1" parent="1">
          <mxGeometry x="810" y="1450" width="120" height="60" as="geometry" />
        </mxCell>
        <mxCell id="vko4F_rAwtcysbSp9PWE-122" style="edgeStyle=orthogonalEdgeStyle;rounded=0;orthogonalLoop=1;jettySize=auto;html=1;exitX=1;exitY=1;exitDx=0;exitDy=0;" edge="1" parent="1" source="vko4F_rAwtcysbSp9PWE-114">
          <mxGeometry relative="1" as="geometry">
            <mxPoint x="1030" y="1720" as="targetPoint" />
          </mxGeometry>
        </mxCell>
        <mxCell id="vko4F_rAwtcysbSp9PWE-114" value="Establish Superiority&amp;nbsp;" style="rounded=1;whiteSpace=wrap;html=1;" vertex="1" parent="1">
          <mxGeometry x="810" y="1550" width="120" height="60" as="geometry" />
        </mxCell>
        <mxCell id="vko4F_rAwtcysbSp9PWE-117" style="edgeStyle=orthogonalEdgeStyle;rounded=0;orthogonalLoop=1;jettySize=auto;html=1;" edge="1" parent="1" source="vko4F_rAwtcysbSp9PWE-116" target="vko4F_rAwtcysbSp9PWE-118">
          <mxGeometry relative="1" as="geometry">
            <mxPoint x="1200" y="1570" as="targetPoint" />
          </mxGeometry>
        </mxCell>
        <mxCell id="vko4F_rAwtcysbSp9PWE-116" value="Down with the Red Star" style="rounded=1;whiteSpace=wrap;html=1;" vertex="1" parent="1">
          <mxGeometry x="1140" y="1450" width="120" height="60" as="geometry" />
        </mxCell>
        <mxCell id="vko4F_rAwtcysbSp9PWE-123" style="edgeStyle=orthogonalEdgeStyle;rounded=0;orthogonalLoop=1;jettySize=auto;html=1;exitX=0;exitY=1;exitDx=0;exitDy=0;" edge="1" parent="1" source="vko4F_rAwtcysbSp9PWE-118">
          <mxGeometry relative="1" as="geometry">
            <mxPoint x="1030" y="1720" as="targetPoint" />
          </mxGeometry>
        </mxCell>
        <mxCell id="vko4F_rAwtcysbSp9PWE-118" value="Their hopes destroyed" style="rounded=1;whiteSpace=wrap;html=1;" vertex="1" parent="1">
          <mxGeometry x="1140" y="1550" width="120" height="60" as="geometry" />
        </mxCell>
        <mxCell id="vko4F_rAwtcysbSp9PWE-125" style="edgeStyle=orthogonalEdgeStyle;rounded=0;orthogonalLoop=1;jettySize=auto;html=1;" edge="1" parent="1" source="vko4F_rAwtcysbSp9PWE-124" target="vko4F_rAwtcysbSp9PWE-126">
          <mxGeometry relative="1" as="geometry">
            <mxPoint x="1030" y="1830" as="targetPoint" />
          </mxGeometry>
        </mxCell>
        <mxCell id="vko4F_rAwtcysbSp9PWE-124" value="To the Promised Land" style="rounded=1;whiteSpace=wrap;html=1;" vertex="1" parent="1">
          <mxGeometry x="970" y="1720" width="120" height="60" as="geometry" />
        </mxCell>
        <mxCell id="vko4F_rAwtcysbSp9PWE-126" value="Chikatilograd" style="rounded=1;whiteSpace=wrap;html=1;" vertex="1" parent="1">
          <mxGeometry x="970" y="1810" width="120" height="60" as="geometry" />
        </mxCell>
        <mxCell id="vko4F_rAwtcysbSp9PWE-133" style="edgeStyle=orthogonalEdgeStyle;rounded=0;orthogonalLoop=1;jettySize=auto;html=1;" edge="1" parent="1" source="vko4F_rAwtcysbSp9PWE-132" target="vko4F_rAwtcysbSp9PWE-134">
          <mxGeometry relative="1" as="geometry">
            <mxPoint x="370" y="1440" as="targetPoint" />
          </mxGeometry>
        </mxCell>
        <mxCell id="vko4F_rAwtcysbSp9PWE-132" value="The Antikhrist, Victorious!" style="rounded=1;whiteSpace=wrap;html=1;" vertex="1" parent="1">
          <mxGeometry x="310" y="1330" width="120" height="60" as="geometry" />
        </mxCell>
        <mxCell id="vko4F_rAwtcysbSp9PWE-134" value="The Apocalypse Begins." style="rounded=1;whiteSpace=wrap;html=1;" vertex="1" parent="1">
          <mxGeometry x="310" y="1440" width="120" height="60" as="geometry" />
        </mxCell>
      </root>
    </mxGraphModel>
  </diagram>
</mxfile>
